<svg id="visual" viewBox="0 0 900 600" width="900" height="600" xmlns="http://www.w3.org/2000/svg" xmlns:xlink="http://www.w3.org/1999/xlink" version="1.1"><rect x="0" y="0" width="900" height="600" fill="#ffffff"></rect><defs><linearGradient id="grad1_0" x1="33.3%" y1="0%" x2="100%" y2="100%"><stop offset="20%" stop-color="#217aff" stop-opacity="1"></stop><stop offset="80%" stop-color="#217aff" stop-opacity="1"></stop></linearGradient></defs><defs><linearGradient id="grad1_1" x1="33.3%" y1="0%" x2="100%" y2="100%"><stop offset="20%" stop-color="#217aff" stop-opacity="1"></stop><stop offset="80%" stop-color="#adb9ff" stop-opacity="1"></stop></linearGradient></defs><defs><linearGradient id="grad1_2" x1="33.3%" y1="0%" x2="100%" y2="100%"><stop offset="20%" stop-color="#ffffff" stop-opacity="1"></stop><stop offset="80%" stop-color="#adb9ff" stop-opacity="1"></stop></linearGradient></defs><defs><linearGradient id="grad2_0" x1="0%" y1="0%" x2="66.7%" y2="100%"><stop offset="20%" stop-color="#217aff" stop-opacity="1"></stop><stop offset="80%" stop-color="#217aff" stop-opacity="1"></stop></linearGradient></defs><defs><linearGradient id="grad2_1" x1="0%" y1="0%" x2="66.7%" y2="100%"><stop offset="20%" stop-color="#adb9ff" stop-opacity="1"></stop><stop offset="80%" stop-color="#217aff" stop-opacity="1"></stop></linearGradient></defs><defs><linearGradient id="grad2_2" x1="0%" y1="0%" x2="66.7%" y2="100%"><stop offset="20%" stop-color="#adb9ff" stop-opacity="1"></stop><stop offset="80%" stop-color="#ffffff" stop-opacity="1"></stop></linearGradient></defs><g transform="translate(900, 0)"><path d="M0 459.7C-54.8 441.2 -109.7 422.8 -167.2 403.7C-224.8 384.7 -285.1 365 -325.1 325.1C-365 285.1 -384.7 224.8 -403.7 167.2C-422.8 109.7 -441.2 54.8 -459.7 0L0 0Z" fill="#d8dcff"></path><path d="M0 306.5C-36.6 294.2 -73.1 281.9 -111.5 269.2C-149.9 256.5 -190.1 243.4 -216.7 216.7C-243.4 190.1 -256.5 149.9 -269.2 111.5C-281.9 73.1 -294.2 36.6 -306.5 0L0 0Z" fill="#7a99ff"></path><path d="M0 153.2C-18.3 147.1 -36.6 140.9 -55.7 134.6C-74.9 128.2 -95 121.7 -108.4 108.4C-121.7 95 -128.2 74.9 -134.6 55.7C-140.9 36.6 -147.1 18.3 -153.2 0L0 0Z" fill="#217aff"></path></g><g transform="translate(0, 600)"><path d="M0 -459.7C65.4 -459.1 130.9 -458.4 175.9 -424.7C221 -391 245.6 -324.1 275.8 -275.8C305.9 -227.4 341.7 -197.5 373.2 -154.6C404.8 -111.7 432.3 -55.9 459.7 0L0 0Z" fill="#d8dcff"></path><path d="M0 -306.5C43.6 -306.1 87.3 -305.6 117.3 -283.1C147.3 -260.7 163.7 -216.1 183.8 -183.8C204 -151.6 227.8 -131.7 248.8 -103.1C269.9 -74.5 288.2 -37.2 306.5 0L0 0Z" fill="#7a99ff"></path><path d="M0 -153.2C21.8 -153 43.6 -152.8 58.6 -141.6C73.7 -130.3 81.9 -108 91.9 -91.9C102 -75.8 113.9 -65.8 124.4 -51.5C134.9 -37.2 144.1 -18.6 153.2 0L0 0Z" fill="#217aff"></path></g></svg>