<svg id="visual" viewBox="0 0 900 600" width="900" height="600" xmlns="http://www.w3.org/2000/svg" xmlns:xlink="http://www.w3.org/1999/xlink" version="1.1"><rect x="0" y="0" width="900" height="600" fill="#ffffff"></rect><defs><linearGradient id="grad1_0" x1="33.3%" y1="100%" x2="100%" y2="0%"><stop offset="20%" stop-color="#217aff" stop-opacity="1"></stop><stop offset="80%" stop-color="#217aff" stop-opacity="1"></stop></linearGradient></defs><defs><linearGradient id="grad1_1" x1="33.3%" y1="100%" x2="100%" y2="0%"><stop offset="20%" stop-color="#217aff" stop-opacity="1"></stop><stop offset="80%" stop-color="#adb9ff" stop-opacity="1"></stop></linearGradient></defs><defs><linearGradient id="grad1_2" x1="33.3%" y1="100%" x2="100%" y2="0%"><stop offset="20%" stop-color="#ffffff" stop-opacity="1"></stop><stop offset="80%" stop-color="#adb9ff" stop-opacity="1"></stop></linearGradient></defs><defs><linearGradient id="grad2_0" x1="0%" y1="100%" x2="66.7%" y2="0%"><stop offset="20%" stop-color="#217aff" stop-opacity="1"></stop><stop offset="80%" stop-color="#217aff" stop-opacity="1"></stop></linearGradient></defs><defs><linearGradient id="grad2_1" x1="0%" y1="100%" x2="66.7%" y2="0%"><stop offset="20%" stop-color="#adb9ff" stop-opacity="1"></stop><stop offset="80%" stop-color="#217aff" stop-opacity="1"></stop></linearGradient></defs><defs><linearGradient id="grad2_2" x1="0%" y1="100%" x2="66.7%" y2="0%"><stop offset="20%" stop-color="#adb9ff" stop-opacity="1"></stop><stop offset="80%" stop-color="#ffffff" stop-opacity="1"></stop></linearGradient></defs><g transform="translate(900, 600)"><path d="M-486.7 0C-487.4 -70.5 -488 -141 -449.7 -186.3C-411.4 -231.5 -334.3 -251.5 -282.8 -282.8C-231.4 -314.2 -205.5 -356.8 -162.6 -392.6C-119.8 -428.5 -59.9 -457.6 0 -486.7L0 0Z" fill="#d8dcff"></path><path d="M-324.5 0C-324.9 -47 -325.3 -94 -299.8 -124.2C-274.3 -154.4 -222.9 -167.7 -188.6 -188.6C-154.2 -209.4 -137 -237.9 -108.4 -261.8C-79.8 -285.7 -39.9 -305.1 0 -324.5L0 0Z" fill="#7a99ff"></path><path d="M-162.2 0C-162.5 -23.5 -162.7 -47 -149.9 -62.1C-137.1 -77.2 -111.4 -83.8 -94.3 -94.3C-77.1 -104.7 -68.5 -118.9 -54.2 -130.9C-39.9 -142.8 -20 -152.5 0 -162.2L0 0Z" fill="#217aff"></path></g><g transform="translate(0, 0)"><path d="M486.7 0C455.3 57.6 423.9 115.1 392.6 162.6C361.4 210.2 330.4 247.6 299.1 299.1C267.8 350.6 236.2 416.1 186.3 449.7C136.4 483.3 68.2 485 0 486.7L0 0Z" fill="#d8dcff"></path><path d="M324.5 0C303.5 38.4 282.6 76.8 261.8 108.4C241 140.1 220.3 165.1 199.4 199.4C178.5 233.7 157.4 277.4 124.2 299.8C90.9 322.2 45.5 323.4 0 324.5L0 0Z" fill="#7a99ff"></path><path d="M162.2 0C151.8 19.2 141.3 38.4 130.9 54.2C120.5 70.1 110.1 82.5 99.7 99.7C89.3 116.9 78.7 138.7 62.1 149.9C45.5 161.1 22.7 161.7 0 162.2L0 0Z" fill="#217aff"></path></g></svg>